<?xml version="1.0" encoding="UTF-8"?>
<svg width="1024px" height="1024px" viewBox="0 0 1024 1024" xmlns="http://www.w3.org/2000/svg" xmlns:xlink="http://www.w3.org/1999/xlink" version="1.1">
 <!-- Generated by Pixelmator Pro 2.0 -->
 <style>
  path {
      fill: #000;
  }
  @media (prefers-color-scheme: dark) {
      path {
          fill: #eee;
      }
  }
</style>
 <path id="Shape" d="M296.623 976.629 C121.463 895.297 -0 717.834 -0 512 -0 229.23 229.23 0 512 0 794.769 0 1024 229.23 1024 512 1024 671.985 950.622 814.831 835.686 908.721 816.726 892.69 799.668 872.615 789.852 863.139 779.597 853.24 764.244 836.239 755.736 825.357 747.229 814.476 735.031 797.322 728.629 787.238 722.227 777.155 713.101 761.501 708.348 752.453 703.225 742.7 699.705 733.183 699.705 729.082 699.705 725.276 701.531 715.963 703.762 708.387 706.613 698.7 707.805 688.648 707.777 674.539 707.756 663.502 706.397 643.576 704.758 630.262 703.119 616.948 700.796 592.686 699.596 576.346 698.395 560.007 695.594 539.211 693.371 530.133 691.148 521.054 686.095 504.834 682.143 494.088 674.956 474.549 674.957 474.55 681.557 464.381 685.186 458.787 695.619 444.307 704.74 432.203 713.862 420.1 725.21 403.934 729.957 396.281 734.704 388.628 741.093 375.756 744.154 367.674 747.215 359.593 751.678 345.058 754.07 335.375 756.463 325.692 760.216 308.277 762.41 296.676 764.604 285.075 767.047 267.819 767.84 258.328 768.632 248.837 769.187 233.228 769.072 223.643 768.957 214.057 767.871 201.03 766.658 194.691 765.446 188.353 762.572 179.287 760.271 174.545 757.972 169.803 752.775 162.181 748.723 157.607 744.67 153.033 738.144 148.249 734.219 146.977 728.833 145.231 724.098 145.448 714.914 147.869 708.222 149.632 696.471 153.713 688.801 156.936 674.855 162.794 674.855 162.795 676.15 157.758 676.864 154.987 678.033 144.979 678.748 135.518 679.796 121.646 679.365 116.746 676.525 110.209 674.588 105.751 670.627 99.381 667.723 96.053 662.857 90.477 661.222 90 646.916 90 632.341 90 630.915 90.438 623.639 97.152 619.375 101.086 610.444 109.751 603.791 116.408 597.139 123.066 587.281 135.306 581.885 143.609 576.489 151.913 568.469 168.747 564.059 181.02 559.649 193.292 552.755 215.713 548.738 230.842 544.722 245.971 539.257 268.254 536.594 280.357 533.93 292.461 530.222 309.962 528.355 319.248 526.489 328.535 523.856 337.775 522.504 339.781 520.793 342.32 514.836 344.071 502.9 345.541 493.47 346.703 475.715 349.195 463.445 351.078 451.177 352.962 432.925 356.769 422.887 359.539 412.848 362.309 397.334 367.649 388.41 371.404 379.487 375.16 364.676 383.095 355.496 389.037 346.316 394.978 325.327 410.521 308.854 423.576 292.379 436.632 273.794 452.826 267.553 459.564 261.311 466.302 248.86 481.885 239.883 494.193 230.905 506.501 216.211 528.504 207.229 543.086 195.75 561.72 192.588 570.259 186.842 584.525 177.858 606.832 183.557 638.482 164.955 653.211 164.196 653.813 160.904 655.901 160.893 676.477 160.881 697.053 162.605 701.286 168.434 707.346 171.639 710.679 174.862 716.36 175.592 719.969 176.387 723.896 183.14 733.627 192.42 744.215 200.946 753.942 214.765 766.777 223.131 772.736 231.496 778.696 252.485 791.08 269.773 800.256 287.859 809.854 304.481 820.29 308.912 824.83 313.15 829.171 318.993 837.995 321.898 844.439 326.694 855.077 326.991 857.209 325.107 867.549 323.966 873.813 317.905 896.554 311.637 918.084 305.843 937.984 299.402 963.168 296.623 976.629 Z" fill="#000000" fill-opacity="1" stroke="none"/>
</svg>
