<svg xmlns="http://www.w3.org/2000/svg" xmlns:xlink="http://www.w3.org/1999/xlink" width="982" height="690" xmlns:v="https://vecta.io/nano"><defs><path id="A" d="M830 695l-8.338-25.485c-.871-1.499-1.704-4.591-1.85-6.871s-1.944-8.097-3.995-12.925-3.469-11.129-3.152-14-.383-9.396-1.558-14.495-2.697-11.148-3.379-13.437l-4.775-16.619c-1.943-6.853-3.621-15.481-3.728-19.177s-1.136-8.634-2.286-10.976-2.231-13.915-2.401-25.722-1.457-23.659-2.858-26.345-.915-8.722-.915-8.722 5.065-3.332-.244-5.711c-1.328-.595-1.029-4.164.008-6.975 1.138-3.084.761-7.145-.952-10.255-2.646-4.807-2.508-5.228 2.078-6.311 2.359-.557 5.946-1.638 5.946-1.638l-5.896-5.401c-3.822-2.809-4.994-9.69-5.21-15.956-.191-5.541-.433-15.931-2.137-23.658-3.168-14.364-7.923-28.58-14.876-41.492-3.97-7.372-15.053-20.035-15.053-20.035s-4.562-5.847-7.504-7.176-16.021-17.422-21.308-27.898c-2.441-4.836-3.443-12.78-4.555-15.638s-10.918-25.474-12.227-30.734c-1.329-5.347-5.153-13.989-8.135-19.303l-8.004-14.652c-1.419-2.747-2.916-6.308-3.327-7.918-.347-1.362 1.289 1.367-2.763-5.509-.12-.205.956-6.753.788-7.872-.045-.298-3.939.321-3.936 0 .021-2.493.787-5.511.787-5.511s-4.448 1.394-4.801.81c-5.049-8.335-15.968-21.808-16.548-24.988s-38.261-67.661-39.691-69.495c-2.223-2.851-1.667-5.8 3.85-20.393 5.543-14.666 6.27-18.545 5.181-27.648-.697-5.822-3.697-13.88-6.667-17.903-3.016-4.088-10.33-9.251-16.568-11.698-6.142-2.409-15.604-4.096-21.026-3.749s-15.123 2.772-21.562 5.387c-11.641 4.731-11.782 4.722-25.948-1.563-7.834-3.475-19.595-8.946-26.135-12.159s-16.702-7.458-22.583-9.433c-6.24-2.097-17.84-3.406-27.862-3.146l-41.244.808c-13.239.199-31.287 1.835-40.107 3.633s-23.244 6.6-32.053 10.666c-11.257 5.197-21.742 12.935-35.276 26.037-12.732 12.325-21.58 23.194-26.11 32.074-5.446 10.675-11.146 16.892-27.792 30.312-11.517 9.284-24.732 18.788-29.368 21.12s-11.756 6.7-15.825 9.707c-4.802 3.552-7.644 7.697-8.101 11.822-.387 3.495.033 9.484.932 13.312s2.817 8.821 4.785 8.678c.545-.04 2.518-.532 2.927 2.619.334 2.578-.804 8.608-1.079 10.84-.959 7.795-.122 14.411 2.215 19.706 2.495 5.653 6.084 8.859 12.36 11.043 1.848.643 4.038 1.283 6.262 1.849 1.814.462 3.65.875 5.34 1.2s3.236.562 4.468.673c3.975.355 9.419-.468 11.9 2.76 3.349 4.358.658 15.25-.532 16.479-1.325 1.367-4.321-3.344-6.709-6.775-3.902-5.609-3.902-5.609-3.587 4.436.026.811-.117 2.415-.352 4.288-.079.625-3.64 4.94-4.309 9.072-.944 5.836.031 9.437 1.641 17.715 1.188 6.116 4.42 13.704 7.182 16.859s9.144 7.609 14.183 9.895c7.581 3.437 12.181 3.679 26.65 1.4 17.487-2.755 17.487-2.755 22.494 7.662 2.753 5.73 8.036 12.766 11.738 15.634s7.368 7.93 8.147 11.242 3.39 44.215 3.264 50.98c-.056 2.958.229 3.154-.049 6.371-.167 1.938-1.219 4.252-1.066 8.828l.037 1.83c.01 1.384 1.095 2.906 1.029 4.299-.052 1.111-1.396 1.874-1.574 3.149-2.412 17.295-7.634 34.634-9.808 42.792-3.239 12.152-7.029 25.579-8.422 29.839s-4.068 18.418-5.943 31.462-4.363 33.25-5.529 44.902-3.926 30.316-6.134 41.473S278 695 278 695h552z"/></defs><use xlink:href="#A" fill="#eee"/><defs><path id="B" d="M733.516 339.406l-5.813-8.89-2.875-6-3.312-12.578-9.047-21.907-6.063-17.218-3.515-7.688-10.297-19.016-1.906-4.296-1.016-3.563-2.563-4.391.813-8.281-3.891.047.797-5.641-5.125.922-14.672-21.312-4.39-8.875-6.438-11.625-31.359-53.735-.344-2.734.594-3.141 8.578-24.781 1.078-4.75.406-4.281-.687-8.563-1.813-6.812-3.265-7.406-1.735-2.61-2.281-2.484-5.734-4.5-7.86-4.25-7.187-2.266-10.531-1.703-5.188.031-5.109.797-11.61 3.078-11.515 4.266-3.672.531-2.375-.265-9.422-3.5-32.641-15.172-12.078-5.141-8.469-3-8.843-1.687-7.578-.719-7.797-.219-51.016 1.094-21.766 1.781-9.703 1.453-6.343 1.453-12.797 3.938-14.938 5.969-10.484 5.906-10.797 7.969-14.25 12.906-12.422 13.141-9 11.75-8.484 14.359-3.985 5-5.125 5.234-13.687 11.735-15.219 11.687-10.656 7.375-10.485 5.953-9.265 6.125-3.203 2.844-2.875 3.797-1.36 3.172-.468 2.703-.016 5.031.562 5.406 1.594 6.157 1.766 3.656 1.594 1.5 2.343.391.735 1.203.187 2.39-1.359 11.219-.078 6.813 1.218 7.234 2.61 6.25 1.828 2.625 2.187 2.187 5.625 3.313 6.36 2.094 7.062 1.64 4.516.688 6.906.344 2.141.5 2.265 1.453 1.297 2.547.453 3.625-.265 3.796-.938 4.297-.734 1.703-.219.157-.672-.235-.984-.906-5.984-8.203-1.172-1.281-1.328.187-.5 12.547-2.985 5.203-1.328 3.922-.25 7.078 2.141 12.016 2.297 7.281 3.39 6.797 3.297 3.766 7.391 5.375 7.109 3.609 5.313 1.594 4.281.422 5.078-.157 21.266-2.828 3.265.078 2.406.813 2.485 2.703 4.515 8.656 2.969 4.531 4.453 5.454 4.719 4.265 2.484 2.828 2.579 4.063.921 2.64 1.61 19.469 1.39 24.219.219 12.016-1.172 9.125.078 3.031.969 4.094-1.469 2.609-1.984 11.594h.016l-2.36 10.672-9.25 34.515-4.968 17.016-2.11 9.484-4.297 26.266-7.078 57.906-4.109 24.5-5.906 21.703-16.469 55.422h553.344l-7.485-23.297-2.156-5.547-1.781-8.765-5.203-15.016-.907-5.297-.328-9.297-1.031-6.172-3.313-13.468-6.109-21.594h-.016l-2.14-10.422h.015l-1.14-9.969-2.422-8.531-1.25-12.141-1.172-25.5-1.203-8.656-1.406-4.406-.422-3.188.031-3.765 1.406-1.297.828-2.031-.765-1.782-2.141-1.421-.312-.657.015-2.937 1.375-5.86-.109-2.796-.688-2.719-2.5-5.735.188-.578.906-.531 8.563-2.375.14-.578-7.64-7.125-2.157-4.438-1.14-6.093-.844-16.188-1.078-8.859-2.063-8.985-3.093-10.671-3.782-10.438-3.328-7.609-3.5-6.875-3.078-4.766-13.219-16.547-3.89-3.922-4.172-3.047-5.281-5.875-6.391-8.312z"/></defs><use fill="none" xlink:href="#B"/><path d="M698 695s-3.158-5.078-6.108-9.135-8.449-10.713-12.219-14.789-8.897-9.189-11.394-11.362-11.819-8.198-18.162-13.387-12.109-12.007-15.366-15.151-8.132-8.543-10.834-11.999-6.576-8.903-8.61-12.106-4.931-8.174-6.441-11.047c-1.627-3.098-2.744-6.12-2.744-7.422 0-1.209.58-4.167 1.288-6.573.906-3.076 1.285-6.269 1.276-10.75-.007-3.505-.439-9.833-.959-14.061s-1.259-11.934-1.64-17.123-1.271-11.794-1.976-14.677-2.311-8.034-3.566-11.447c-2.283-6.205-2.283-6.205-.187-9.435 1.153-1.776 4.467-6.375 7.363-10.219s6.501-8.977 8.009-11.408 3.536-6.519 4.508-9.085 2.39-7.183 3.149-10.258 1.952-8.606 2.649-12.29 1.473-9.165 1.725-12.179a140.72 140.72 0 0 0 .391-11.015c-.037-3.044-.381-7.182-.767-9.195s-1.297-4.892-2.028-6.398-2.381-3.927-3.668-5.379-3.36-2.972-4.606-3.377c-1.711-.554-3.214-.485-6.131.284-2.125.56-5.857 1.856-8.293 2.879-4.429 1.861-4.429 1.861-4.017.261.226-.88.597-4.058.824-7.063.333-4.405.196-5.961-.705-8.037-.616-1.416-1.874-3.439-2.796-4.496-1.545-1.771-2.065-1.922-6.608-1.922-4.629 0-5.082.139-7.393 2.271-1.354 1.249-4.19 4.001-6.303 6.116s-5.243 6.001-6.957 8.638-4.261 7.984-5.662 11.881-3.589 11.018-4.865 15.823-3.011 11.881-3.857 15.725l-2.616 12.352c-.593 2.949-1.429 5.883-1.858 6.521-.544.806-2.436 1.362-6.226 1.829-2.995.369-8.634 1.16-12.53 1.758s-9.693 1.808-12.881 2.687-8.115 2.576-10.949 3.769-7.538 3.712-10.453 5.599-9.582 6.823-14.814 10.97-11.134 9.289-13.116 11.429-5.937 7.088-8.788 10.997-7.518 10.897-10.37 15.528c-3.646 5.918-4.65 8.63-6.475 13.161-2.853 7.084-1.043 17.135-6.95 21.813-.242.191-1.287.854-1.291 7.389s.544 7.879 2.395 9.804c1.019 1.058 2.041 2.862 2.273 4.008.253 1.247 2.398 4.338 5.345 7.701 2.708 3.089 7.097 7.165 9.753 9.057s9.323 5.826 14.813 8.74c5.744 3.048 11.022 6.363 12.43 7.805 1.346 1.379 3.202 4.181 4.124 6.228 1.523 3.378 1.617 4.054 1.019 7.338-.362 1.99-2.287 9.212-4.278 16.049s-4.223 15.644-4.961 19.57c-.762 4.05-1.502 11.381-1.711 16.952C475.999 690.658 476 695 476 695h222z"/></svg>